<svg xmlns="http://www.w3.org/2000/svg" xmlns:xlink="http://www.w3.org/1999/xlink" width="33" height="30" viewBox="0 0 33 30">
    <defs>
        <path id="a" d="M14.313 19.291C9.84 27.827-.32 25 .12 16.128.503 8.434 12.048 5.793 13.847.291c-.07.022.571.057.57.022 1.445 5.502 13.509 7.969 14.086 15.815.652 8.872-10.209 11.733-14.19 3.163z"/>
    </defs>
    <g fill="none" fill-rule="evenodd">
        <g transform="translate(2.243)">
            <mask id="b" fill="#fff">
                <use xlink:href="#a"/>
            </mask>
            <use fill="#000" fill-opacity="0" fill-rule="nonzero" xlink:href="#a"/>
            <path fill="#FFED2A" d="M27.233 9.688c.004-.002-2.883 6.562-13.032 6.563-10.148.002-16.418-9.389-16.418-9.389S-1.104 6.08.641 4.375c1.176 1.404 5.548 7.805 13.456 7.813 7.47.006 8.344-2.97 12.816-6.563.874 1.065-.664.856.32 4.063z" mask="url(#b)"/>
            <path fill="#FFED2A" d="M29.152-11.872S27.233 8.125 14.202 7.882C1.17 7.64-.295-8.136.345-8.136c.641 0-.687 3.538 1.058 1.834 1.966 2.344 15.748 9.377 26.893.425.875 1.066-.13-9.514.855-5.995z" mask="url(#b)"/>
            <g fill="#FFED2A" mask="url(#b)">
                <path d="M14.555 18.75c2.563 3.125 13.777 3.125 13.777-7.813.64-.208 1.068 3.126 1.281 10-6.408 4.167-11.32 4.688-14.738 1.563-.64-1.25-1.397-3.16-.32-3.75z"/>
            </g>
            <path fill="#FFED2A" d="M14.097 18.75C11.534 21.875 0 21.875 0 10.937c-.64-.208-1.068 3.126-1.282 10 6.408 4.167 11.32 4.688 14.738 1.563.641-1.25 1.718-3.16.641-3.75z" mask="url(#b)"/>
        </g>
        <path fill="#FFED2A" fill-rule="nonzero" d="M15.469 19.375c-.09 11.93-2.933 6.863-4.402 8.526-.185.207-.35.802-.494 1.787h11.854c-.067-.931-.19-1.492-.367-1.683-1.502-1.647-4.439 3.3-4.497-8.63"/>
    </g>
</svg>
