<svg xmlns="http://www.w3.org/2000/svg" xmlns:xlink="http://www.w3.org/1999/xlink" width="110" height="29" viewBox="0 0 110 29">
    <defs>
        <path id="a" d="M11.277 15.433C7.754 22.262-.253 20 .095 12.903.396 6.746 9.492 4.633 10.91.232c-.056.017.45.045.45.017 1.137 4.402 10.642 6.375 11.097 12.652.514 7.098-8.043 9.387-11.18 2.53z"/>
    </defs>
    <g fill="none" fill-rule="evenodd">
        <g transform="translate(1.767 2)">
            <mask id="b" fill="#fff">
                <use xlink:href="#a"/>
            </mask>
            <use fill="#000" fill-opacity="0" fill-rule="nonzero" xlink:href="#a"/>
            <path fill="#FFED2A" d="M21.456 7.75c.003-.001-2.272 5.25-10.267 5.251C3.193 13.002-1.746 5.49-1.746 5.49S-.87 4.864.504 3.5c.928 1.123 4.372 6.244 10.603 6.25 5.886.005 6.574-2.376 10.097-5.25.689.852-.523.685.252 3.25z" mask="url(#b)"/>
            <path fill="#FFED2A" d="M22.968-9.498S21.456 6.5 11.188 6.306C.923 6.11-.231-6.51.274-6.51c.505 0-.541 2.83.833 1.467 1.55 1.875 12.408 7.502 21.189.34.689.853-.102-7.611.673-4.796z" mask="url(#b)"/>
            <g fill="#FFED2A" mask="url(#b)">
                <path d="M11.467 15c2.02 2.5 10.855 2.5 10.855-6.25.505-.167.841 2.5 1.01 8-5.049 3.333-8.92 3.75-11.612 1.25-.505-1-1.101-2.529-.253-3z"/>
            </g>
            <path fill="#FFED2A" d="M11.107 15C9.087 17.5 0 17.5 0 8.75c-.505-.167-.841 2.5-1.01 8C4.04 20.083 7.91 20.5 10.602 18c.505-1 1.353-2.529.505-3z" mask="url(#b)"/>
        </g>
        <path fill="#FFED2A" fill-rule="nonzero" d="M12.188 17.5c-.071 9.544-2.311 5.49-3.469 6.821-.145.165-.275.642-.389 1.429h9.34c-.053-.745-.15-1.193-.29-1.346-1.183-1.318-3.497 2.64-3.543-6.904M40.273 5.176l-3.865 10.948h-.046l-1.678-5.796L32.936 4.9h-2.784v.391l5.337 15.824h1.472l3.886-10.327h.047l3.887 10.327h1.38l5.358-15.824V4.9h-2.828l-1.703 5.428-1.61 5.773h-.045L41.469 5.176h-1.197zM53.45 6.487c0 1.012.782 1.495 1.541 1.495.736 0 1.473-.506 1.473-1.495 0-.966-.737-1.472-1.496-1.472-.758 0-1.517.483-1.517 1.472zm2.76 3.542h-2.506V21h2.507V10.029zm2.392 1.449c1.149-.097 1.276.217 1.288 1.208V21H62.4v-6.44c0-1.794 1.242-2.875 2.805-2.875 1.496 0 2.646 1.058 2.646 2.806v3.956c0 2.645 1.656 2.921 3.772 2.507v-1.587c-1.082.115-1.288-.184-1.288-1.012v-3.956c.069-2.76-1.38-4.738-4.394-4.738-1.564 0-2.99.644-3.703 2.047 0-1.84-1.886-2.277-3.657-1.84l.023 1.61zm17.526 4.071c0-1.679.828-3.703 2.83-3.703 1.867 0 2.982 1.376 2.992 3.482l-.002.221c-.023 2.484-1.403 3.68-3.496 3.68-.737 0-1.519-.184-2.324-.483v-3.197zm-2.46 4.715c1.449.621 2.966 1.035 4.553 1.035 3.428.069 6.165-1.702 6.28-5.75.069-4.002-2.415-5.819-4.876-5.819-1.726 0-2.83.713-3.635 2.07V4.325h-2.323v15.939zm22.885-1.886c-.99.46-2.37.828-3.657.828-2.439.069-4.163-1.173-4.095-3.473 1.035.621 2.507.989 3.956.92 2.117-.069 4.163-1.081 4.279-3.289.114-2.737-2.553-3.795-4.969-3.726-2.872.067-5.437 1.842-5.625 5.26l-.01.26c-.184 3.91 2.37 6.164 6.302 6.049 1.38-.069 2.668-.23 3.888-.851l-.07-1.978zm-7.567-4.324c.368-1.656 1.564-2.415 3.105-2.438 1.127 0 2.599.414 2.53 1.725-.07 1.15-1.335 1.587-2.323 1.587-1.15 0-2.485-.299-3.313-.874zm20.032 4.324c-.989.46-2.369.828-3.657.828-2.438.069-4.162-1.173-4.093-3.473 1.034.621 2.506.989 3.956.92 2.116-.069 4.163-1.081 4.278-3.289.115-2.737-2.553-3.795-4.969-3.726-2.872.067-5.437 1.842-5.625 5.26l-.01.26c-.183 3.91 2.37 6.164 6.302 6.049 1.38-.069 2.669-.23 3.888-.851l-.07-1.978zm-7.567-4.324c.368-1.656 1.564-2.415 3.106-2.438 1.126 0 2.598.414 2.53 1.725-.07 1.15-1.334 1.587-2.323 1.587-1.15 0-2.484-.299-3.313-.874z"/>
    </g>
</svg>
