<svg xmlns="http://www.w3.org/2000/svg" width="18" height="18" viewBox="0 0 18 18">
    <path fill="#B0AAB3" fill-rule="nonzero" d="M8.5 14.759c5.247 0 9.5-1.714 9.5-7.38S14.747 0 9.5 0 0 1.713 0 7.38c0 3.533 1.655 5.53 4.173 6.531.166.977-.558 2.34-2.173 4.089 3.522-.508 5.522-1.508 6-3 .701-.003-.083-.241.5-.241zm-1.23-.756l-.222.692c-.22.689-1.071 1.299-2.59 1.763.598-1.002.84-1.897.7-2.715l-.094-.553-.521-.208C2.204 12.052 1 10.29 1 7.38 1 2.923 3.909 1 9.5 1 14.762 1 17 2.732 17 7.38c0 4.455-2.909 6.379-8.5 6.379-.362 0-.585.032-.837.242l-.394.002z"/>
</svg>
