<svg xmlns="http://www.w3.org/2000/svg" width="17" height="17" viewBox="0 0 17 17">
    <g fill="none" fill-rule="evenodd" stroke="#B0AAB3" stroke-linecap="round" stroke-linejoin="round" stroke-width=".938" transform="translate(1 1)">
        <path d="M13.134 9.47c-.074.21-.158.415-.253.614l1.217 2.089-1.927 1.925-2.08-1.221c-.197.095-.402.18-.613.253l-.617 2.339H6.137l-.607-2.336a5.91 5.91 0 0 1-.613-.252l-2.09 1.216-1.925-1.925 1.22-2.08a5.968 5.968 0 0 1-.253-.614l-2.338-.617V6.138l2.336-.608c.073-.21.157-.415.252-.614L.903 2.828 2.829.902l2.08 1.22c.198-.095.403-.18.613-.253l.617-2.338h2.723l.608 2.336c.21.073.415.157.614.253L12.173.903l1.925 1.926-1.221 2.08a5.9 5.9 0 0 1 .254.613l2.338.617v2.724l-2.335.607z"/>
        <circle cx="7.5" cy="7.5" r="2.969"/>
    </g>
</svg>
