<svg xmlns="http://www.w3.org/2000/svg" width="26" height="26" viewBox="0 0 26 26">
    <path fill="#FFF" fill-opacity=".2" fill-rule="nonzero" d="M13 0c7.18 0 13 5.82 13 13s-5.82 13-13 13S0 20.18 0 13 5.82 0 13 0zm0 2C6.925 2 2 6.925 2 13c0 3.359 1.506 6.366 3.879 8.384L5.5 20.5l4.512-1.292V16.75c-.064-.058-.127-.11-.185-.167-1.079-1.045-1.639-2.516-1.639-4.016v-2.48A4.213 4.213 0 0 1 12.4 5.875h1.12a4.213 4.213 0 0 1 4.21 4.212v2.48c0 1.5-.559 2.971-1.638 4.016l-.184.167v2.458L20.5 20.5l.14.415C22.71 18.915 24 16.108 24 13c0-6.075-4.925-11-11-11z"/>
</svg>
