<svg xmlns="http://www.w3.org/2000/svg" width="18" height="18" viewBox="0 0 18 18">
    <g fill="#B0AAB3" fill-rule="nonzero">
        <path d="M6.708 1.42L6.382.413a8.428 8.428 0 0 0-1.048.42l.459.954a7.35 7.35 0 0 1 .915-.367z"/>
        <path d="M9 0c-.511 0-1.021.046-1.524.136l.19 1.042c.266-.046.535-.078.805-.096v1.592a5.795 5.795 0 0 0-3.195 1.324L4.15 2.87c.248-.216.51-.415.785-.597l-.582-.885A8.472 8.472 0 1 0 9 0zm7.385 7.941h-1.588a5.795 5.795 0 0 0-1.325-3.194l1.123-1.123a7.371 7.371 0 0 1 1.79 4.317zM9.529 1.086a7.37 7.37 0 0 1 4.317 1.79l-1.122 1.122a5.795 5.795 0 0 0-3.195-1.324V1.086zM3.404 3.623l1.124 1.124A5.795 5.795 0 0 0 3.203 7.94H1.621a7.372 7.372 0 0 1 1.783-4.318zM1.615 9h1.588a5.795 5.795 0 0 0 1.325 3.195l-1.123 1.122A7.371 7.371 0 0 1 1.615 9zm6.856 6.856a7.37 7.37 0 0 1-4.317-1.79l1.122-1.123a5.795 5.795 0 0 0 3.195 1.324v1.589zM4.235 8.47a4.765 4.765 0 1 1 9.53 0 4.765 4.765 0 0 1-9.53 0zm5.294 7.385v-1.589a5.795 5.795 0 0 0 3.195-1.324l1.122 1.122a7.37 7.37 0 0 1-4.317 1.79zm5.066-2.539l-1.123-1.122A5.795 5.795 0 0 0 14.797 9h1.588a7.371 7.371 0 0 1-1.79 4.317z"/>
        <path d="M9 4.565L6.408 7.023a2 2 0 0 0 2.063 3.312v.915h-.53v1.059h2.118V11.25h-.53v-.903c.723.25 1.526.062 2.063-.482a2.026 2.026 0 0 0-.012-2.854L9 4.565zm1.84 4.554a.955.955 0 0 1-1.327 0L9 8.602l-.513.517A.947.947 0 0 1 7.148 7.78L9 6.024l1.84 1.744c.37.375.37.977 0 1.351z"/>
    </g>
</svg>
